<?xml version="1.0" encoding="UTF-8"?>
<svg width="100px" height="100px" viewBox="0 0 100 100" version="1.1" xmlns="http://www.w3.org/2000/svg" xmlns:xlink="http://www.w3.org/1999/xlink">
    <!-- Generator: Sketch 55.2 (78181) - https://sketchapp.com -->
    <title>Logo-icon</title>
    <desc>Created with Sketch.</desc>
    <g id="Archive" stroke="none" stroke-width="1" fill="none" fill-rule="evenodd">
        <g id="Color-Type-Copy-3" transform="translate(-195.000000, -400.000000)">
            <g id="Logo-icon" transform="translate(195.000000, 400.000000)">
                <g id="Group-3" fill="#06D1C6">
                    <path d="M43.6196498,-1.39970696e-15 L56.3803502,1.39970696e-15 C69.391347,-9.90374369e-16 75.716556,1.670861 81.5832227,4.80838867 C87.4498893,7.94591634 92.0540837,12.5501107 95.1916113,18.4167773 C98.329139,24.283444 100,30.608653 100,43.6196498 L100,56.3803502 C100,69.391347 98.329139,75.716556 95.1916113,81.5832227 C92.0540837,87.4498893 87.4498893,92.0540837 81.5832227,95.1916113 C75.716556,98.329139 69.391347,100 56.3803502,100 L43.6196498,100 C30.608653,100 24.283444,98.329139 18.4167773,95.1916113 C12.5501107,92.0540837 7.94591634,87.4498893 4.80838867,81.5832227 C1.670861,75.716556 6.6024958e-16,69.391347 -9.33137974e-16,56.3803502 L9.33137974e-16,43.6196498 C-6.6024958e-16,30.608653 1.670861,24.283444 4.80838867,18.4167773 C7.94591634,12.5501107 12.5501107,7.94591634 18.4167773,4.80838867 C24.283444,1.670861 30.608653,9.90374369e-16 43.6196498,-1.39970696e-15 Z" id="Rectangle"></path>
                </g>
                <path d="M61.4183383,24.5385525 L61.6013209,24.5372421 L61.9969539,23.6620207 L61.7385974,23.8300737 L61.4183383,24.5385525 Z M38.3986791,75.4627579 L38.0030461,76.3379793 L38.2614026,76.1699263 L38.5816617,75.4614475 L38.3986791,75.4627579 Z M59.6589109,21.5510748 L66.0818521,21.5050802 L40.3410891,78.4489252 L33.9181479,78.4949198 L59.6589109,21.5510748 Z" id="Path-Copy" stroke="#FF0077" stroke-width="3" fill="#FF0078" transform="translate(50.000000, 50.000000) rotate(0.500000) translate(-50.000000, -50.000000) "></path>
            </g>
        </g>
    </g>
</svg>